<?xml version="1.0" encoding="UTF-8" standalone="no"?>
<!-- Created with Inkscape (http://www.inkscape.org/) -->

<svg
   xmlns:dc="http://purl.org/dc/elements/1.1/"
   xmlns:cc="http://creativecommons.org/ns#"
   xmlns:rdf="http://www.w3.org/1999/02/22-rdf-syntax-ns#"
   xmlns:svg="http://www.w3.org/2000/svg"
   xmlns="http://www.w3.org/2000/svg"
   xmlns:sodipodi="http://sodipodi.sourceforge.net/DTD/sodipodi-0.dtd"
   xmlns:inkscape="http://www.inkscape.org/namespaces/inkscape"
   width="210mm"
   height="297mm"
   id="svg2"
   version="1.1"
   inkscape:version="0.48.1 r9760"
   inkscape:export-filename="/home/johny/Escritorio/1.png"
   inkscape:export-xdpi="100"
   inkscape:export-ydpi="100"
   sodipodi:docname="Nuevo documento 1">
  <defs
     id="defs4" />
  <sodipodi:namedview
     id="base"
     pagecolor="#ffffff"
     bordercolor="#666666"
     borderopacity="1.0"
     inkscape:pageopacity="0.0"
     inkscape:pageshadow="2"
     inkscape:zoom="1"
     inkscape:cx="383.13551"
     inkscape:cy="446.91391"
     inkscape:document-units="px"
     inkscape:current-layer="layer1"
     showgrid="false"
     inkscape:window-width="1024"
     inkscape:window-height="689"
     inkscape:window-x="0"
     inkscape:window-y="25"
     inkscape:window-maximized="1" />
  <metadata
     id="metadata7">
    <rdf:RDF>
      <cc:Work
         rdf:about="">
        <dc:format>image/svg+xml</dc:format>
        <dc:type
           rdf:resource="http://purl.org/dc/dcmitype/StillImage" />
        <dc:title></dc:title>
      </cc:Work>
    </rdf:RDF>
  </metadata>
  <g
     inkscape:label="Capa 1"
     inkscape:groupmode="layer"
     id="layer1">
    <path
       style="fill:none;stroke:#000000;stroke-width:3;stroke-linecap:butt;stroke-linejoin:miter;stroke-miterlimit:4;stroke-opacity:1;stroke-dasharray:none"
       d="m 16,621.36218 c 4.31933,0.0829 6.84692,-5.1555 11,-7 1.13918,-3.96972 5.66031,-6.64993 4.91873,-11.33728 2.83429,-1.80895 2.07237,-7.08421 2.08127,-10.95592 0.35524,-3.61919 -0.33761,-6.73576 -2.07628,-9.5428 0.0974,-4.0508 0.0744,-8.12182 0.0763,-12.164 1.38592,-1.85714 0.16294,-3.3088 3,-4.5 1.8844,-2.42334 6.50476,-1.26575 9.822,-1.5 19.05868,-8.4e-4 38.12292,0.001 57.178,0 2.66642,-2.24674 6.84295,-0.51265 10.2042,-1 3.93193,0.003 7.86401,-0.004 11.7958,0 0.48435,2.65626 5.957,3.44148 6.00232,6.42798 1.23356,3.2237 1.03618,7.02897 0.99768,10.77622 0.75742,4.03472 -2.92403,3.57594 -4,6.7958 -4.40494,1.54321 -9.29237,1.5682 -13.5,3.5 -3.60393,1.09392 -7.36435,1.82481 -11.5576,1.5 -9.62024,-0.002 -19.45895,0.003 -28.9424,0 0.14244,-0.45356 0.82079,0.23159 1,0"
       id="path2989"
       inkscape:connector-curvature="0" />
    <path
       style="fill:none;stroke:#000000;stroke-width:3;stroke-linecap:butt;stroke-linejoin:miter;stroke-miterlimit:4;stroke-opacity:1;stroke-dasharray:none"
       d="m 51,563.36218 c 5.93207,-5.12633 -0.96004,-14.81745 3.48916,-21.00921 1.47833,-7.61677 8.36015,-11.91043 10.82398,-18.89325 1.99082,-7.13428 6.1445,-12.92025 7.63897,-20.21867 1.00756,-6.41364 5.11174,-11.03016 7.00546,-17.18288 3.73164,-5.50074 3.51471,-12.72648 8.67948,-17.98569 3.60322,-5.91024 6.70483,-12.32948 12.08278,-16.83937 3.34032,-2.24365 8.19291,-3.61176 8.77147,0.29216 5.06417,3.29271 8.26248,8.77999 11.21089,14.14033 3.45515,7.57494 2.4779,16.30785 1.82515,24.42683 -2.03851,6.123 -4.9083,11.95148 -8.2943,17.11607 -2.53697,6.21622 -8.03073,7.62523 -10.37204,13.33513 -0.7364,3.65602 -3.75109,4.20149 -0.9206,6.85143 0.88016,6.41054 -0.77318,12.64337 -3.3041,18.45298 -2.6017,3.66325 -6.29743,11.96731 1.95372,9.51827 7.85148,-0.3378 8.95276,-2.35304 16.65499,-3.4923 7.13276,-3.10756 8.65608,-8.69482 12.77024,-14.62094 4.86014,-6.70013 10.53284,-14.25888 15.29219,-21.23647 1.7248,-5.80532 4.16678,-11.01523 6.95271,-16.60826 1.24046,-5.94599 7.25975,-9.02369 9.67411,-14.41617 4.98376,-6.38036 12.91954,-9.20606 19.1448,-14.13563 4.42304,-3.0144 12.98436,-9.25142 12.74847,0.63341 0.36039,7.27873 0.10161,14.58333 0.17247,21.87223 -4.8455,3.95118 -4.55439,11.01498 -8.48032,15.69478 -5.02948,7.42678 -9.61146,15.12926 -15.10917,22.22364 -3.6484,5.35279 -6.79786,11.99041 -10.81199,14.92859 -2.10188,6.78265 -7.90483,10.62495 -12.12626,15.61243 -5.62916,-0.0667 -1.04515,9.7507 -6.58204,6.59098 -2.54447,5.01676 -7.85788,6.56054 -10.89022,7.94958"
       id="path2991"
       inkscape:connector-curvature="0"
       sodipodi:nodetypes="ccccccccccccccccccccccccccccc" />
    <path
       style="fill:none;stroke:#000000;stroke-width:3;stroke-linecap:butt;stroke-linejoin:miter;stroke-miterlimit:4;stroke-opacity:1;stroke-dasharray:none"
       d="m 143,569.36218 c 0.0924,5.33036 10.36285,-2.32078 12.49777,2.05949 2.12967,1.16925 5.32511,1.65008 5.50223,4.94051 0.7931,2.2003 1.29494,4.67565 1,7.9686 -0.15267,3.94015 -0.13481,7.83839 -3,9.0314 -1.74456,1.63058 -2.97433,6.14605 -4.40148,4.84701 -1.6335,3.4872 -2.72223,6.69638 -5.59852,7.15299 -2.13701,1.26148 -3.39533,2.76369 -6.5,3.5 -3.53291,1.52032 -7.73715,1.43706 -9.5,3.5 -4.44416,0.23462 -6.7361,2.2065 -11.57202,2.99768 -1.64804,1.32212 -4.81982,1.00276 -7.77878,1.00232 -4.70065,0.41888 -7.22624,0.0114 -8.6492,-4 -2.13275,-1.99449 -3.27221,-9.6521 -1,-12 0.83608,-2.3069 4.31556,-9.9342 6,-11"
       id="path2993"
       inkscape:connector-curvature="0"
       sodipodi:nodetypes="cccccccccccccc" />
    <path
       style="fill:none;stroke:#000000;stroke-width:3;stroke-linecap:butt;stroke-linejoin:miter;stroke-miterlimit:4;stroke-opacity:1;stroke-dasharray:none"
       d="m 160,578.36218 c 2.18636,0.40493 5.80597,-1.02005 6.42752,1.15695 4.50789,0.27041 8.12758,4.88167 13.07248,4.34305 3.06449,1.25369 4.85088,3.16213 4.5,7.8822 -0.21233,4.54992 0.45864,9.26159 -0.40701,13.69188 -3.00424,2.68339 -3.85968,7.79955 -7.64889,7.37002 -0.61914,2.32276 -4.29915,1.30703 -2.79111,2.95738 -3.77928,1.38082 -6.58646,4.18378 -10.15299,5.59852 -3.41601,1.23442 -4.79954,2.9464 -8,3.5 -0.62184,1.33843 -0.34306,1.8508 -3.911,1.5 -3.36297,-0.0341 -6.72753,0.064 -10.089,0 -1.1424,-2.18715 -5.90346,-1.49806 -6.47659,-4.03249 -3.68218,-0.68 5.5e-4,-1.3167 -2.60726,-2.44771 -0.67985,-2.76826 -3.9313,-5.68659 -3.34193,-9.83621 -0.66444,-0.428 -0.8031,5.76415 -0.57422,3.31641"
       id="path2995"
       inkscape:connector-curvature="0"
       sodipodi:nodetypes="ccccccccccccccc" />
    <path
       style="fill:none;stroke:#000000;stroke-width:3;stroke-linecap:butt;stroke-linejoin:miter;stroke-miterlimit:4;stroke-opacity:1;stroke-dasharray:none"
       d="m 134,619.36218 c 0.12249,7.29075 -6.86107,7.49672 -11,11 -4.28377,2.53162 -9.54036,7.22036 -11,12 -2.72095,1.10964 -2.71778,6.18154 -3,9"
       id="path2997"
       inkscape:connector-curvature="0" />
    <path
       style="fill:none;stroke:#000000;stroke-width:3;stroke-linecap:butt;stroke-linejoin:miter;stroke-miterlimit:4;stroke-opacity:1;stroke-dasharray:none"
       d="m 103,560.36218 c 4.29814,2.14907 2.50929,2 5,2 0.33333,0 0.7643,-0.2357 1,0 0.2357,0.2357 -0.2357,0.7643 0,1 0.2357,0.2357 0.7643,-0.2357 1,0 0.2357,0.2357 -0.2357,0.7643 0,1 0.2357,0.2357 0.70186,-0.14907 1,0 0.84327,0.42164 1.15673,1.57837 2,2 0.29814,0.14907 0.7643,-0.2357 1,0 0.2357,0.2357 -0.2357,0.7643 0,1 0.5,0.5 2.5,-0.5 3,0 0.2357,0.2357 -0.33333,1 0,1 0.4714,0 0.57836,-0.78918 1,-1 0.29814,-0.14907 0.66667,0 1,0 0.33333,0 0.7643,-0.2357 1,0 0.2357,0.2357 0,0.66667 0,1 0,0.33334 0,0.66667 0,1 0,2 0,4 0,6 0,0.33334 0.2357,0.7643 0,1 -0.2357,0.2357 -0.7643,-0.2357 -1,0 -0.2357,0.2357 0.2357,0.7643 0,1 -0.2357,0.2357 -0.66667,0 -1,0 -0.33333,0 -0.66667,0 -1,0 -4.66667,0 -9.33333,0 -14,0 -0.33333,0 -0.66667,0 -1,0 -0.33333,0 -0.7643,0.2357 -1,0 -0.2357,-0.2357 0.2357,-0.7643 0,-1 -0.4714,-0.4714 -1.5286,0.47141 -2,0 -0.2357,-0.2357 0.2357,-0.7643 0,-1 -0.2357,-0.2357 -0.7643,0.2357 -1,0 -0.2357,-0.2357 0.2357,-0.7643 0,-1 -0.2357,-0.2357 -0.7643,0.2357 -1,0 -0.2357,-0.2357 0,-0.66666 0,-1 0,-0.33333 0,-0.66666 0,-1 0,-3.66666 0,-7.33333 0,-11"
       id="path3005"
       inkscape:connector-curvature="0" />
    <path
       style="fill:none;stroke:#000000;stroke-width:3;stroke-linecap:butt;stroke-linejoin:miter;stroke-miterlimit:4;stroke-opacity:1;stroke-dasharray:none"
       d="m 17,621.36218 94,30"
       id="path3009"
       inkscape:connector-curvature="0" />
    <path
       style="fill:#ffb380;fill-opacity:1;stroke-width:3;stroke-miterlimit:4;stroke-dasharray:none"
       d="m 63.54862,635.24394 c -23.1,-7.42917 -42.22452,-13.71879 -42.49894,-13.97695 -0.27443,-0.25815 1.34358,-2.11984 3.59556,-4.13709 4.80725,-4.30617 6.82491,-7.39397 8.98088,-13.74425 1.57791,-4.6476 1.57416,-5.26192 -0.15075,-24.75164 -0.33238,-3.7555 -0.35016,-7.84085 -0.0395,-9.07856 1.05292,-4.19517 4.01355,-4.59327 34.15981,-4.59327 l 28.45295,0 0,4.97695 c 0,7.16644 1.90199,8.18174 14.63191,7.81069 l 9.86809,-0.28764 0.2999,-5.75 c 0.29726,-5.69923 0.27519,-5.75013 -2.49999,-5.76531 -1.53995,-0.008 -3.47491,-0.45153 -4.29991,-0.98469 -1.07696,-0.69599 -0.0899,-0.9661 3.5,-0.95778 3.98642,0.009 5.67901,0.57485 8.34954,2.79016 3.01894,2.50434 3.39945,3.41464 3.85521,9.2231 0.45833,5.84109 0.28515,6.64212 -1.84954,8.55484 -2.72913,2.44535 -14.4155,5.57893 -17.65081,4.73288 -1.3006,-0.34011 -2.2044,-0.11864 -2.2044,0.54017 0,0.78082 -5.41327,1.11663 -18,1.11663 -11.33333,0 -18,0.37037 -18,1 0,0.62748 6.33781,1 17.01342,1 l 17.01342,0 -1.67119,3.75 c -3.71201,8.32939 -2.00581,18.54675 3.32036,19.88353 2.47117,0.62023 14.05314,-0.0651 18.32399,-1.08429 2.14572,-0.51204 2.74172,-0.0736 4.20574,3.0942 0.93815,2.02993 1.45365,4.09866 1.14555,4.59717 -0.3081,0.49852 -3.55068,2.83871 -7.20573,5.20043 -3.65506,2.36171 -7.55365,5.36613 -8.66354,6.67649 -3.72604,4.39905 -6.38867,8.66237 -7.0462,11.28216 -0.35895,1.43017 -1.16635,2.55291 -1.79423,2.49498 -0.62787,-0.0579 -20.04159,-6.18374 -43.14159,-13.61291 z"
       id="path3025"
       inkscape:connector-curvature="0" />
    <path
       style="fill:#ffb380;fill-opacity:1;stroke-width:3;stroke-miterlimit:4;stroke-dasharray:none"
       d="m 131.71529,573.29551 c -0.36667,-0.36666 -0.66667,-1.63386 -0.66667,-2.816 0,-1.19181 -1.53053,-3.50436 -3.43556,-5.19095 -3.11482,-2.75765 -4.2585,-3.09614 -12.25,-3.62558 -4.84794,-0.32118 -9.83363,-0.88948 -11.0793,-1.2629 -1.81833,-0.54508 -2.14226,-0.35944 -1.64301,0.94158 0.47207,1.23021 0.014,1.62052 -1.90181,1.62052 -1.38801,0 -2.78615,-0.5625 -3.10699,-1.25 -0.46666,-1 -0.7,-1 -1.16666,0 -0.43968,0.94218 -5.79581,1.25042 -21.75,1.25169 l -21.16667,0.002 0.53423,-9.2517 c 0.57016,-9.87393 1.96758,-14.1305 6.90694,-21.03868 3.44444,-4.81737 10.19718,-19.94122 12.6109,-28.2441 0.89832,-3.09012 3.55256,-9.75355 5.89832,-14.80763 2.34576,-5.05408 4.60775,-10.30794 5.02665,-11.67525 0.99273,-3.24032 8.97769,-16.34912 13.15377,-21.59435 1.799,-2.25958 4.58816,-4.65395 6.19813,-5.32082 2.80013,-1.15985 3.12581,-1.00317 7.50014,3.60832 7.48698,7.89288 10.10843,14.15196 10.51898,25.11557 l 0.34805,9.29475 -4.8067,9.70525 c -2.64369,5.33789 -6.6786,11.73025 -8.96647,14.20525 -6.15781,6.66147 -7.41443,9.6823 -6.74119,16.20538 0.58377,5.65616 -1.3511,13.77274 -4.40389,18.47385 -0.77832,1.19857 -1.27175,3.67357 -1.0965,5.5 l 0.31864,3.32077 5,-0.30741 c 5.904,-0.36299 15.77051,-2.764 19.69259,-4.79218 1.53425,-0.79339 5.56073,-5.57712 8.98041,-10.66933 3.40953,-5.07709 8.61242,-12.49939 11.56199,-16.494 2.94956,-3.9946 5.96972,-8.9446 6.71145,-11 6.51363,-18.04979 14.46881,-28.54856 28.56149,-37.69373 17.3743,-11.27471 16.99207,-11.38254 16.99207,4.79396 0,10.9765 -0.0435,11.1816 -4.15832,19.62755 -3.55674,7.30038 -9.6698,16.7188 -31.96497,49.24858 -1.9928,2.90761 -5.9303,7.40464 -8.74999,9.9934 -3.02775,2.77977 -5.12672,5.56129 -5.12672,6.79383 0,1.14785 -0.5625,1.9754 -1.25,1.83899 -0.6875,-0.13641 -2.76009,1.19386 -4.60575,2.95616 -3.28931,3.14073 -5.14674,3.86836 -6.47758,2.53751 l 0,0 z"
       id="path3027"
       inkscape:connector-curvature="0" />
    <path
       style="fill:#ffb380;fill-opacity:1;stroke-width:3;stroke-miterlimit:4;stroke-dasharray:none"
       d="m 106.03766,611.71218 c -2.52497,-4.14124 -2.50387,-7.24446 0.0917,-13.49008 2.02575,-4.87449 2.24373,-5.04924 8.25,-6.61384 3.3931,-0.88388 7.51927,-1.8988 9.16927,-2.25538 4.59506,-0.99303 8.5,-5.15161 8.5,-9.05211 0,-2.7034 0.57721,-3.58039 3.25,-4.93789 1.7875,-0.90786 3.82644,-2.11108 4.53097,-2.67382 0.70453,-0.56275 4.07953,-1.09712 7.5,-1.1875 7.36008,-0.19447 13.21541,2.45447 12.39131,5.60581 -0.26677,1.02015 -0.0231,1.85481 0.54153,1.85481 0.6313,0 0.86643,2.21401 0.61065,5.75 -0.41075,5.67855 -0.91341,6.66344 -6.57446,12.88161 -1.2375,1.35929 -2.25,2.86761 -2.25,3.35182 0,1.64645 -6.17261,5.28301 -13.79209,8.12554 -4.17881,1.55895 -7.66873,2.73468 -7.75539,2.61274 -0.0867,-0.12194 -0.63871,-1.11535 -1.22679,-2.20757 -1.01713,-1.8891 -1.10102,-1.85918 -1.72174,0.61396 -0.79821,3.18032 -5.61915,4.8719 -13.88471,4.8719 -5.29972,0 -5.77109,-0.20077 -7.63024,-3.25 z"
       id="path3029"
       inkscape:connector-curvature="0" />
    <path
       style="fill:#ffb380;fill-opacity:1;stroke-width:3;stroke-miterlimit:4;stroke-dasharray:none"
       d="m 137.79862,623.39021 c -1.5125,-0.82055 -2.75,-2.15253 -2.75,-2.95996 0,-0.80744 -0.60277,-1.46807 -1.33948,-1.46807 -0.73672,0 -1.80837,-1.02909 -2.38146,-2.28687 -1.12889,-2.47766 -1.10946,-2.4893 11.99866,-7.18735 4.89097,-1.75295 8.55382,-4.84738 14.72228,-12.43757 4.46413,-5.49305 4.84465,-6.484 4.92972,-12.83821 0.0387,-2.8875 0.21106,-5.25 0.38313,-5.25 0.17206,0 2.60542,1.10598 5.40746,2.45772 2.80203,1.35175 6.37375,2.76219 7.93715,3.13431 5.42745,1.29186 6.34254,2.96521 6.34254,11.59814 0,5.70103 -0.46537,8.59044 -1.68285,10.44855 -2.39398,3.65368 -10.62198,9.48665 -20.11396,14.25912 -7.01798,3.52857 -9.03581,4.09656 -14.43099,4.06212 -3.59058,-0.0229 -7.44793,-0.67788 -9.0222,-1.53193 z"
       id="path3031"
       inkscape:connector-curvature="0" />
    <path
       style="fill:#ffb380;fill-opacity:1;stroke-width:3;stroke-miterlimit:4;stroke-dasharray:none"
       d="m 102.04862,646.95083 c -1.375,-0.4694 -18.925,-6.11305 -39,-12.54145 -20.075,-6.4284 -37.55356,-12.08829 -38.84125,-12.57754 -2.30571,-0.87604 -2.26523,-0.97273 2.6658,-6.36806 7.56401,-8.27623 8.44396,-11.9183 7.5876,-31.40466 l -0.70469,-16.03521 2.51736,-0.9571 c 1.38454,-0.52641 15.40037,-1.28221 31.14627,-1.67957 l 28.62891,-0.72247 0.0153,4.89871 c 0.024,7.68365 0.29863,7.85182 13.44644,8.23476 l 11.53825,0.33605 0,-6.01273 c 0,-4.88552 -0.32807,-6.09846 -1.75,-6.47005 -1.18346,-0.30927 -0.94066,-0.49327 0.75,-0.56836 1.375,-0.0611 3.85,0.96906 5.5,2.28918 2.80737,2.2461 3,2.83974 3,9.24504 l 0,6.84481 -4.5,2.22606 c -5.70488,2.82209 -14.21271,3.99905 -35.25,4.87642 -9.2125,0.38422 -16.75,1.08084 -16.75,1.54805 0,0.46721 7.425,0.84947 16.5,0.84947 9.075,0 16.5,0.16843 16.5,0.37428 0,0.20585 -0.675,2.28742 -1.5,4.62572 -2.10068,5.95398 -1.88623,11.85421 0.57777,15.89591 l 2.0703,3.3959 10.86393,-0.57312 c 11.39669,-0.60122 12.07489,-0.4025 13.39967,3.92631 0.55124,1.80122 -0.45666,2.9546 -6.28896,7.19666 -8.58738,6.24593 -10.53691,8.27562 -14.31955,14.90834 -3.08857,5.4157 -3.57742,5.68124 -7.80316,4.23865 z"
       id="path3033"
       inkscape:connector-curvature="0" />
    <path
       style="fill:#ffb380;fill-opacity:1;stroke-width:3;stroke-miterlimit:4;stroke-dasharray:none"
       d="m 66.04862,635.49916 c -21.175,-6.81761 -39.78754,-12.88535 -41.3612,-13.48385 l -2.8612,-1.08818 4.04016,-4.38306 c 2.22209,-2.41069 5.08463,-6.3403 6.3612,-8.73247 2.21598,-4.15255 2.30772,-5.15319 2.02665,-22.10729 l -0.2944,-17.75787 2.53374,-0.96333 c 1.39356,-0.52983 15.33757,-1.27209 30.98668,-1.64946 l 28.45294,-0.68614 0.30772,5.38304 c 0.40177,7.02845 2.05417,7.89723 15.05771,7.91689 l 9.75,0.0147 0,-5.92667 c 0,-4.80357 -0.33163,-6.01334 -1.75,-6.384 -1.18346,-0.30927 -0.94066,-0.49327 0.75,-0.56836 1.375,-0.0611 3.85,0.96906 5.5,2.28918 2.80737,2.2461 3,2.83974 3,9.24504 l 0,6.84481 -4.5,2.22606 c -5.61705,2.77864 -14.12354,3.98974 -34.28536,4.88132 -8.68195,0.38392 -16.02101,1.07933 -16.30902,1.54533 -0.28801,0.46601 6.70291,0.84729 15.53536,0.84729 8.83246,0 16.05902,0.14484 16.05902,0.32186 0,0.17703 -0.72949,2.4628 -1.62109,5.07951 -1.90079,5.57851 -1.43708,12.33471 1.11379,16.22784 l 1.74163,2.65805 10.8208,-0.57084 c 11.34511,-0.59851 12.03297,-0.39675 13.35271,3.91651 0.54533,1.78228 -0.49352,2.9826 -6.31894,7.30117 -7.98327,5.91824 -12.20934,10.4215 -15.10308,16.09371 -1.11456,2.1847 -2.57982,3.95704 -3.25614,3.93852 -0.67632,-0.0185 -18.55468,-5.61173 -39.72968,-12.42935 z"
       id="path3035"
       inkscape:connector-curvature="0" />
    <path
       style="fill:#ffb380;fill-opacity:1;stroke-width:3;stroke-miterlimit:4;stroke-dasharray:none"
       d="m 101.38551,573.80004 c -1.42464,-1.00524 -2.25,-2.62043 -2.25,-4.40312 0,-2.53338 0.42042,-2.88271 4.19599,-3.48645 3.35951,-0.53721 4.7469,-0.26366 6.9595,1.37219 1.51994,1.12374 3.23174,2.04316 3.80401,2.04316 0.57227,0 1.0405,0.7301 1.0405,1.62244 0,1.37219 0.24619,1.41813 1.59604,0.29785 1.39592,-1.15851 1.55265,-1.01714 1.25,1.12756 -0.32516,2.30415 -0.76853,2.4691 -7.34604,2.73308 -5.13901,0.20624 -7.59818,-0.14116 -9.25,-1.30671 z"
       id="path3813"
       inkscape:connector-curvature="0" />
    <path
       style="fill:#ffb380;stroke:#000000;stroke-width:2;stroke-linecap:butt;stroke-linejoin:miter;stroke-miterlimit:4;stroke-opacity:1;stroke-dasharray:none"
       d="m 374,674.36218 c 2.3263,-1.67438 2.25832,-9.45449 4.10727,-9.55612 1.73443,-2.73585 2.4751,-4.74172 2.89273,-8.44388 1.86009,-3.94702 5.43765,-11.01128 4,-14 3.5358,-5.48836 1.39753,-8.87966 7,-13 1.48901,-3.67627 4.96999,-7.25386 6,-12 2.43037,-2.15033 2.44309,-5.67554 6,-8 0.56597,-3.07917 5.3184,-5.54595 7,-9 5.82985,-2.27594 12.51798,-8.11622 19.24884,-10.36855 6.81346,-1.37888 10.42822,-4.22133 18.77009,-5.58028 5.62557,-3.38216 12.35015,-6.57472 10.98107,-13.68637 0.39558,-8.18498 -1.23008,-10.9747 -5,-16.3648 -1.87794,-4.0629 -10.20977,-1.79511 -13,2 -3.21746,-0.0982 -7.21666,5.83634 -12.02205,6.962 -7.06161,4.726 -11.99633,10.64997 -19.97795,13.038 -7.56576,4.58212 -6.9593,0.35192 -4.28477,-0.99554 2.56004,-1.70742 4.03672,-6.25663 5.28477,-9.00446 1.83786,-0.79258 5.58468,-6.40923 9.45074,-10.5568 9.22739,-8.02784 15.09679,-19.34602 20.02179,-30.45594 4.51731,-7.44554 6.03435,-16.02299 5.52747,-24.96366 -0.005,-11.00543 0.007,-22.03349 0,-33.0236 -3.44669,-4.56178 -1.09817,-20.09441 -8.98643,-14.96725 -6.60691,3.95761 -10.82989,13.69004 -16.22221,22.49207 -6.02078,7.71801 -5.82308,15.60137 -9.79136,23.47518 -1.43217,8.65284 -7.50792,13.65173 -11.16,21.5675 -4.72532,5.48096 -8.13599,11.62268 -13.84,16.4325 -4.70652,4.22795 -10.86962,9.19042 -7,2 3.20764,-2.90161 3.2402,-10.54093 6.03274,-12.98643 1.99142,-7.87658 6.29611,-13.30059 8.96726,-21.01357 1.8057,-4.20595 3.7136,-9.06268 3,-14.29399 -0.004,-9.2325 0.006,-18.48779 0,-27.70601 -5.41711,-9.27462 -4.67562,-20.06528 -11,-29 -9.31128,-6.48077 -8.166,13.35402 -13,19 -2.43092,10.46209 -8.65341,20.21058 -8.98436,31.03809 -2.94563,8.03853 -7.70312,21.61127 -8.6735,26.35826 -2.89028,5.74259 -4.84868,18.48381 -10.34214,23.60365 -0.12719,6.64841 0.63985,-6.84279 3,-9 0.6476,-6.49089 4.68598,-11.48062 5,-17.3176 0.30232,-6.04027 -0.34811,-11.83776 -1,-17.6588 0.21068,-6.4736 -0.17984,-12.78691 -1,-19.0236 -2.29609,-8.12768 -4.72497,-15.32307 -10.88191,-21.72487 -6.70358,-5.90009 -14.04017,-12.50124 -24.17119,-10.32967 -3.71243,1.50086 -5.16947,4.7722 -7.9469,10.05454 -2.34817,5.82188 -2.25472,12.6569 -2,19.61159 -6.8e-4,25.46168 9.3e-4,50.93273 0,76.38841 -0.58548,6.72119 -10.56967,12.18039 -10,3 -0.37413,-3.14847 -3.28323,-4.60026 -2.92969,-8.17969 -0.73316,-4.83176 -5.88157,-7.25551 -9.07031,-13.82031 -1.9584,-4.43628 -7.7058,-4.44085 -11,-9 -4.9281,-4.49444 -13.04704,-5.12975 -17,-8 -4,0 -8,0 -12,0 0.11199,-0.23902 -4.54901,1.87456 -4,6.6588 -0.2959,6.1864 0.55222,13.79841 2.40148,16.99118 2.77987,9.63973 11.87112,16.60184 14.65254,26.31664 3.18893,9.49786 6.77923,19.26242 9.94598,28.53338 1.86144,7.93516 7.14353,15.50179 6,24.11159 -0.0741,6.02959 3.75094,10.70256 4,16.70601 0.47993,6.14924 -0.9198,12.86484 -3.5,16.6824 -0.86691,3.73062 -0.61295,7.99034 -2.64364,10.72867 -1.76407,2.57057 6.23109,1.85624 9.53,3.06897 31.20455,5.40079 62.40909,10.80157 93.61364,16.20236 z"
       id="path3815"
       inkscape:connector-curvature="0"
       inkscape:export-filename="/home/johny/Escritorio/2.png"
       inkscape:export-xdpi="100"
       inkscape:export-ydpi="100" />
    <path
       style="fill:none;stroke:#000000;stroke-width:3;stroke-linecap:butt;stroke-linejoin:miter;stroke-miterlimit:4;stroke-opacity:1;stroke-dasharray:none"
       d="m 543,640.36218 c 1.27705,-3.57451 6.50065,-3.90218 2.375,-0.375 -6.38406,1.67369 4.87044,-5.93847 3.08553,-9.64325 3.12019,-4.75814 0.95624,-10.81793 1.53947,-16.20465 -0.007,-3.92068 0.01,-7.88238 0,-11.7771 -2.73895,-3.22525 -4.08662,-8.10686 -5.51303,-12.49621 -1.52421,-5.69907 -4.51336,-10.53329 -7.20785,-15.2566 0.29991,-3.44934 -3.74138,-9.20849 -2.27912,-14.61788 0,-6.20977 0,-12.41954 0,-18.62931 3.06934,-5.16987 7.23712,-7.37064 11,-10 4.61456,-3.09742 11.39391,-3.09407 17,-6 10.3257,-0.007 20.675,-2.8e-4 31,0 3.82554,1.80088 8.9662,3.1901 9.82291,4.60479 5.82821,-0.11975 8.99588,0.53702 10.17709,4.39521 1.72805,4.13376 5.57324,6.65252 5.5,11 1.51319,2.88289 0.43609,8.03933 -1.9698,9.04886 -4.24369,3.22524 -6.83764,4.18291 -12.5302,6.95114 -2.3673,0.77856 -4.07261,2.38485 -7.53661,1.91161 -1.56683,3.04035 -7.05753,1.87687 -10.76018,2.08839 -3.22999,-0.01 -6.49915,0.0141 -9.70321,0 -1.41929,-2.52438 -9.47783,-2.32041 -10,-4 -1.37278,-0.80907 -2.67866,1.45761 -4,-1"
       id="path3818"
       inkscape:connector-curvature="0"
       inkscape:export-filename="/home/johny/Escritorio/3.png"
       inkscape:export-xdpi="100"
       inkscape:export-ydpi="100" />
    <path
       style="fill:none;stroke:#000000;stroke-width:3;stroke-linecap:butt;stroke-linejoin:miter;stroke-miterlimit:4;stroke-opacity:1;stroke-dasharray:none"
       d="m 554,530.36218 c 0.006,-7.99904 -0.008,-16.0098 0,-24 1.57656,-3.05856 3.93602,-10.61129 4.58839,-11.78661 -1.75649,-3.79872 6.43603,-3.60936 10.41161,-6.21339 9.32933,-0.008 18.66722,0.005 28,0 1.44798,2.79494 3.15774,1.70563 3.52316,6.49041 0.13773,6.51723 3.00937,12.27793 2.47684,18.95417 0.004,4.85182 -0.007,9.70377 0,14.55542 0.87688,1.15296 3.29315,7.02692 0.51847,7 l -0.48152,0 -0.037,0"
       id="path3820"
       inkscape:connector-curvature="0"
       inkscape:export-filename="/home/johny/Escritorio/3.png"
       inkscape:export-xdpi="100"
       inkscape:export-ydpi="100" />
    <path
       style="fill:none;stroke:#000000;stroke-width:3;stroke-linecap:butt;stroke-linejoin:miter;stroke-miterlimit:4;stroke-opacity:1;stroke-dasharray:none"
       d="m 601,490.36218 c 0.21767,-5.68558 1.85611,-3.70367 0,0 2.36861,-4.66666 5.96319,-5.67895 10.88916,-5 5.37028,0 10.74056,0 16.11084,0 4.83692,2.55004 4.30531,9.69277 5.5,15.5 0.63085,5.4851 1.83749,10.67203 1.5,16.31527 0.34396,3.72573 -0.86046,7.81699 1,11.18473 -0.0208,4.99424 0.0417,10.00732 0,15 -1.80617,4.35821 -3.58949,9.56036 -6,12 -4.36883,-0.25216 -7.32254,2.81485 -11.44458,3 -4.22507,0.65721 -7.66678,-0.5069 -10.55542,-3 1.28132,-3.06139 5.92087,3.30815 7,0"
       id="path3822"
       inkscape:connector-curvature="0"
       sodipodi:nodetypes="cccccccccccc"
       inkscape:export-filename="/home/johny/Escritorio/3.png"
       inkscape:export-xdpi="100"
       inkscape:export-ydpi="100" />
    <path
       style="fill:none;stroke:#000000;stroke-width:3;stroke-linecap:butt;stroke-linejoin:miter;stroke-miterlimit:4;stroke-opacity:1;stroke-dasharray:none"
       d="m 631,494.36218 c 6.99455,0.002 14.03155,-0.003 21,0 2.46506,4.24539 10.386,6.46011 13.07767,11.02589 0.59566,3.17231 2.28378,6.94589 1.92233,11.86327 0,4.70361 0,9.40723 0,14.11084 -4.29416,5.39943 -5.6685,12.27128 -10,18 0.51145,4.78486 -2.51675,1.94056 -3,7 -2.55471,1.10426 -3.05314,6.27649 -5.84375,6.28884 0.81676,2.54507 -7.40737,1.60927 -10.15625,0.71116 -6.51395,-4.72883 -5.66296,-3.43413 -9,-10 0.63514,-2.2214 1.91557,-1.52217 1,-2"
       id="path3824"
       inkscape:connector-curvature="0"
       sodipodi:nodetypes="ccccccccccc"
       inkscape:export-filename="/home/johny/Escritorio/3.png"
       inkscape:export-xdpi="100"
       inkscape:export-ydpi="100" />
    <path
       style="fill:none;stroke:#000000;stroke-width:3;stroke-linecap:butt;stroke-linejoin:miter;stroke-miterlimit:4;stroke-opacity:1;stroke-dasharray:none"
       d="m 666,511.36218 c 4.66664,0.0102 9.33667,-0.0147 14,0 3.6722,3.87135 5.74924,3.4776 8,8 0.25257,5.47042 1.55973,10.56637 1,16.37069 -0.0385,5.54307 0.0615,11.08939 0,16.62931 -4.3843,3.42625 -3.06987,9.19319 -6.5,12 -2.14759,4.10122 -3.96361,10.80283 -6.5,14 -1.7487,4.36797 -2.75489,3.98237 -6,6.5 -3.15707,0.83085 -4.48251,4.52139 -9,2.5 -3.09893,2.33228 -6.7,1.80258 -9,4 -3.75766,-1.26911 -9.95978,4.83892 -10.86742,0.44509 -4.15689,-3.32949 -4.25824,-9.42196 -7.13258,-13.94509 -0.0466,-2.28697 -1.5745,-4.53327 -2,-5.5"
       id="path3826"
       inkscape:connector-curvature="0"
       inkscape:export-filename="/home/johny/Escritorio/3.png"
       inkscape:export-xdpi="100"
       inkscape:export-ydpi="100" />
    <path
       style="fill:none;stroke:#000000;stroke-width:3;stroke-linecap:butt;stroke-linejoin:miter;stroke-miterlimit:4;stroke-opacity:1;stroke-dasharray:none"
       d="m 663,584.36218 c -10e-4,5.66666 0.002,11.3335 0,17 -1.47259,3.64451 -3.11675,7.03131 -5,12 -3.56821,4.06293 -5.47752,10.17428 -9.60926,13.93248 -2.09677,3.44342 -3.32164,5.47819 -4.97913,9.03091 2.14425,1.25426 -0.86829,4.56287 -2.41161,6.03661 0.51557,4.49857 -0.33254,4.90402 -2,6 -0.2069,4.52755 -2.0484,7.26047 -3,11 -1.45591,2.06167 -0.98448,4.8797 -1,6 3.95204,4.20261 -3.12899,2.02388 -5.89543,0.84981 C 600.40304,657.26205 571.70152,648.31212 543,639.36218"
       id="path3828"
       inkscape:connector-curvature="0"
       inkscape:export-filename="/home/johny/Escritorio/3.png"
       inkscape:export-xdpi="100"
       inkscape:export-ydpi="100" />
    <path
       style="fill:none;stroke:#000000;stroke-width:3;stroke-linecap:butt;stroke-linejoin:miter;stroke-miterlimit:4;stroke-opacity:1;stroke-dasharray:none"
       d="m 584,526.36218 c 0.81397,3.63883 5.49712,6.29943 5.5,10 1.36508,2.55142 2.0908,6.55935 5.89062,5.85937 2.43864,1.72553 12.43154,4.35865 13.09091,4.14063 4.141,0.19896 7.24922,-0.79514 9.51847,-2"
       id="path3830"
       inkscape:connector-curvature="0"
       inkscape:export-filename="/home/johny/Escritorio/3.png"
       inkscape:export-xdpi="100"
       inkscape:export-ydpi="100" />
    <path
       style="fill:#ffb380;fill-opacity:1;stroke-width:3;stroke-miterlimit:4;stroke-dasharray:none"
       d="m 589.0428,652.75295 c -46.39491,-14.57362 -42.73923,-12.56595 -39.52106,-21.70467 2.18592,-6.20743 2.26544,-28.07579 0.11403,-31.35926 -0.82485,-1.25888 -2.62206,-5.58865 -3.99378,-9.62169 -1.37173,-4.03305 -3.45876,-8.94972 -4.63785,-10.92593 -3.55429,-5.95721 -4.84412,-12.80002 -4.85676,-25.7662 l -0.0119,-12.17308 3.08399,-3.08399 c 4.57798,-4.57798 11.47706,-8.34395 13.88542,-7.57956 1.11682,0.35446 2.03059,0.20646 2.03059,-0.3289 0,-2.05058 9.39282,-4.16139 18.51762,-4.16139 8.48987,0 9.24647,0.16491 10.32276,2.25 7.19016,13.92943 7.21518,13.9576 14.65962,16.50381 5.64458,1.93061 8.307,2.29432 13.75,1.87837 6.63127,-0.50675 6.75,-0.47287 6.75,1.926 0,1.343 -0.90459,3.3464 -2.01019,4.452 -1.61824,1.61824 -2.78813,1.88579 -6,1.3722 -3.98896,-0.63787 -5.01235,0.19508 -2.87084,2.33659 1.36945,1.36945 -5.68196,5.28103 -9.52012,5.28103 -1.36445,0 -2.75893,0.45 -3.09885,1 -1.15566,1.86989 -17.55786,1.17192 -23.5,-1 -5.94688,-2.17366 -10,-2.57897 -10,-1 0,0.55 0.79385,1 1.76411,1 0.97027,0 4.22642,0.9 7.23589,2 10.39936,3.8011 26.72259,2.33177 37.81398,-3.40381 1.69768,-0.87791 5.24654,-1.63043 7.88636,-1.67227 2.63981,-0.0418 6.35584,-0.63816 8.25785,-1.32514 3.3118,-1.1962 3.6015,-1.10576 6.84371,2.13645 3.98381,3.98381 6.93436,5.26477 12.12684,5.26477 4.11839,0 7.46037,-2.53788 10.11313,-7.67983 0.80022,-1.5511 1.69625,-3.04517 1.99118,-3.32017 0.29493,-0.275 3.10815,-5.68793 6.2516,-12.02873 5.70711,-11.51211 5.71535,-11.54202 5.71535,-20.75 l 0,-9.22127 5.79705,0 c 5.433,0 6.03919,0.24797 9.65275,3.94859 l 3.8557,3.9486 0.4833,15.05689 c 0.44397,13.83149 0.31267,15.40233 -1.61338,19.3014 -1.15318,2.33448 -4.56212,9.43382 -7.57543,15.77631 -4.86857,10.24746 -5.94351,11.79299 -9.65177,13.87715 -3.25151,1.82745 -4.34898,2.06065 -4.96987,1.05603 -0.63754,-1.03157 -1.09403,-0.99215 -2.28336,0.19718 -1.46368,1.46368 -5.99072,3.30044 -14.54505,5.90138 -4.17451,1.26925 -4.42597,1.22404 -6.23139,-1.12045 -1.03473,-1.3437 -3.09601,-5.59308 -4.58062,-9.44308 -2.84858,-7.38717 -3.93683,-9.23445 -4.8828,-8.28847 -0.88371,0.88371 5.38445,16.05444 7.97631,19.30494 l 2.28856,2.87013 5.89,-1.38257 c 3.2395,-0.76042 7.33805,-1.9724 9.10788,-2.6933 5.00537,-2.03883 5.28212,-1.78387 5.28212,4.86623 0,5.15646 -0.65702,7.53436 -3.97678,14.39299 -2.18723,4.51881 -5.46655,10.17668 -7.28738,12.57304 -4.70936,6.19791 -8.72707,13.71628 -8.14307,15.23818 0.27404,0.71412 -0.19723,1.8756 -1.04726,2.58106 -0.85003,0.70546 -1.54551,2.27756 -1.54551,3.49355 0,1.21599 -0.30433,2.51522 -0.67629,2.88718 -1.07084,1.07084 -5.29551,14.91917 -5.31032,17.40704 -0.009,1.51552 -0.58466,2.21243 -1.76339,2.1349 -0.9625,-0.0633 -20.46672,-5.99441 -43.34271,-13.18023 l 0,0 z"
       id="path3839"
       inkscape:connector-curvature="0"
       inkscape:export-filename="/home/johny/Escritorio/3.png"
       inkscape:export-xdpi="100"
       inkscape:export-ydpi="100" />
    <path
       style="fill:#ffb380;fill-opacity:1;stroke-width:2;stroke-miterlimit:4;stroke-dasharray:none"
       d=""
       id="path3841"
       inkscape:connector-curvature="0" />
    <path
       style="fill:#ffb380;fill-opacity:1;stroke-width:3;stroke-miterlimit:4;stroke-dasharray:none"
       d="m 618.80003,554.47466 c 2.29191,-2.29191 2.50368,-3.10075 1.93473,-7.3897 -0.7568,-5.70505 -6.14615,-15.43141 -9.39631,-16.95786 -1.26338,-0.59335 -3.40088,-1.07882 -4.75,-1.07882 -2.43485,0 -2.45294,-0.0713 -2.45294,-9.67207 0,-5.31964 -0.71489,-13.48719 -1.58865,-18.15012 -2.48431,-13.25793 -0.522,-15.17781 15.51325,-15.17781 10.87905,0 12.40873,0.74621 12.40873,6.05328 0,1.62069 0.30953,2.94672 0.68784,2.94672 0.93005,0 2.7987,17.54576 3.58331,33.64564 0.54322,11.14673 0.37558,13.83968 -1.10244,17.70983 -0.95869,2.5103 -2.23487,4.46976 -2.83596,4.35435 -0.60109,-0.1154 -1.51563,0.71457 -2.03231,1.84439 -0.92288,2.01804 -6.69634,4.44579 -10.57257,4.44579 -1.80411,0 -1.75322,-0.21708 0.60332,-2.57362 z"
       id="path3843"
       inkscape:connector-curvature="0"
       inkscape:export-filename="/home/johny/Escritorio/3.png"
       inkscape:export-xdpi="100"
       inkscape:export-ydpi="100" />
    <path
       style="fill:#ffb380;fill-opacity:1;stroke-width:3;stroke-miterlimit:4;stroke-dasharray:none"
       d="m 636.14157,560.55275 c -1.86038,-1.37254 -3.67258,-2.96489 -4.02712,-3.53854 -0.35453,-0.57365 0.69945,-3.83817 2.34219,-7.25447 l 2.9868,-6.21146 -1.22203,-20 c -0.67212,-11 -1.46367,-21.9125 -1.759,-24.25 l -0.53697,-4.25 8.08379,0 8.08379,0 6.91371,5.04441 c 8.0141,5.84728 9.11883,8.46295 9.14321,21.64841 0.0142,7.65477 -0.11587,8.0652 -6.66122,21.02493 -8.54461,16.91824 -11.2368,20.28225 -16.23174,20.28225 -2.40971,0 -4.93191,-0.88459 -7.11541,-2.49553 z"
       id="path3845"
       inkscape:connector-curvature="0"
       inkscape:export-filename="/home/johny/Escritorio/3.png"
       inkscape:export-xdpi="100"
       inkscape:export-ydpi="100" />
    <path
       style="fill:#ffb380;fill-opacity:1;stroke-width:3;stroke-miterlimit:4;stroke-dasharray:none"
       d="m 555.13551,516.94133 c 0,-8.85256 1.55186,-16.81268 4.61708,-23.68293 0.0711,-0.15943 2.54254,-1.17193 5.49201,-2.25 7.50255,-2.74228 29.74999,-2.88769 32.14863,-0.21012 2.07293,2.31398 4.74228,18.21568 4.74228,28.25044 0,4.39976 -0.23946,7.99956 -0.53212,7.99956 -0.29267,0 -2.14762,-0.675 -4.12213,-1.5 -4.9899,-2.08492 -32.34649,-2.11667 -38.22003,-0.0444 l -4.12572,1.45564 0,-10.01823 z"
       id="path3847"
       inkscape:connector-curvature="0"
       inkscape:export-filename="/home/johny/Escritorio/3.png"
       inkscape:export-xdpi="100"
       inkscape:export-ydpi="100" />
    <path
       style="fill:#ffb380;fill-opacity:1;stroke-width:2;stroke-miterlimit:4;stroke-dasharray:none"
       d=""
       id="path3849"
       inkscape:connector-curvature="0" />
    <path
       style="fill:#ffb380;fill-opacity:1;stroke-width:3;stroke-miterlimit:4;stroke-dasharray:none"
       d="m 601.63551,656.13993 c -41.25437,-12.81139 -48.73115,-15.38052 -51.19583,-17.59165 -2.16858,-1.94549 -2.18879,-2.14991 -0.7415,-7.5 0.91667,-3.38861 1.49072,-9.99918 1.49535,-17.21999 l 0.008,-11.71999 -6.67229,-15.78001 -6.67229,-15.78001 -1.02547,-14.42293 -1.02547,-14.42293 3.915,-3.37161 c 4.29977,-3.703 10.5527,-7.28253 12.72151,-7.28253 0.76241,0 2.79119,-0.70091 4.5084,-1.55756 3.4937,-1.74289 14.33614,-3.09714 21.18508,-2.64608 4.45791,0.29359 4.53932,0.36504 8.70482,7.63892 5.42471,9.47274 9.60646,11.7724 22.53084,12.39033 7.62964,0.36477 8.76434,0.65287 8.76434,2.22528 0,2.99035 -2.84489,4.94911 -7.18806,4.94911 -3.45228,0 -3.97387,0.27279 -3.55851,1.86114 0.65854,2.51825 -2.97324,4.50513 -11.90037,6.51046 -7.36442,1.65429 -16.89574,1.14977 -25.34646,-1.34168 -1.92137,-0.56646 -4.50887,-1.02992 -5.75,-1.02992 -4.49917,0 -2.09707,1.96295 4.9934,4.08052 9.97478,2.97896 26.06167,2.36663 35.85443,-1.36478 3.63244,-1.3841 9.88613,-3.02571 13.89709,-3.64803 4.01096,-0.62232 7.64953,-1.35205 8.0857,-1.62162 0.43617,-0.26957 2.28248,0.80379 4.10291,2.38524 4.8476,4.21123 7.14012,5.16867 12.37605,5.16867 4.0419,0 5.13293,-0.46776 7.81574,-3.35084 1.71495,-1.84296 6.04308,-9.1315 9.61808,-16.19677 l 6.5,-12.84593 0.34466,-10.42979 0.34467,-10.42979 5.65178,0.66426 c 4.69567,0.55188 6.28677,1.28431 9.40534,4.3295 l 3.75355,3.66525 0,15.67851 0,15.67851 -6.87725,13.86854 c -7.46224,15.04823 -10.12008,18.33251 -15.26659,18.8649 -1.84589,0.19095 -6.21172,1.54266 -9.70185,3.00381 -3.49012,1.46115 -7.8806,2.90571 -9.75661,3.21015 l -3.41093,0.55352 -4.50102,-9.63192 c -2.47556,-5.29755 -4.99637,-9.63191 -5.6018,-9.63191 -1.73809,0 -0.2756,4.66258 4.39134,14 4.86509,9.73389 4.48707,9.6046 17.02784,5.82388 3.74172,-1.12803 7.08094,-1.77315 7.42049,-1.4336 0.33955,0.33955 0.56492,2.91973 0.50082,5.73372 -0.13771,6.04558 -4.11415,15.02672 -12.5176,28.27206 -4.34985,6.85615 -6.62168,12.04263 -10.27328,23.45337 -2.57862,8.05781 -4.84193,15.21307 -5.02959,15.90057 -0.18766,0.6875 -1.14283,1.20206 -2.12259,1.14347 -0.97976,-0.0586 -14.38138,-4.01941 -29.78138,-8.80182 z"
       id="path3851"
       inkscape:connector-curvature="0"
       inkscape:export-filename="/home/johny/Escritorio/3.png"
       inkscape:export-xdpi="100"
       inkscape:export-ydpi="100" />
    <path
       style="fill:#ffb380;fill-opacity:1;stroke-width:3;stroke-miterlimit:4;stroke-dasharray:none"
       d="m 599.24309,542.76018 c -5.73923,-2.0783 -6.61293,-2.7694 -8.55038,-6.76337 -1.18688,-2.44669 -2.97455,-5.68603 -3.97259,-7.19853 l -1.81463,-2.75 3.98165,0 c 5.16783,0 13.92033,3.63758 14.55047,6.04725 0.26707,1.02127 -0.0291,2.04182 -0.65826,2.26789 -0.62911,0.22608 -0.82575,0.75325 -0.43697,1.17149 1.39207,1.49757 4.03752,-0.44405 3.4848,-2.55766 -0.45217,-1.72911 -0.1242,-1.99879 2.11342,-1.73785 1.93656,0.22584 3.63678,1.78753 6.32411,5.80888 2.12141,3.17449 3.30882,5.88679 2.80832,6.4148 -1.91215,2.01727 -11.34511,1.6454 -17.82994,-0.7029 l 0,0 z"
       id="path3853"
       inkscape:connector-curvature="0"
       inkscape:export-filename="/home/johny/Escritorio/3.png"
       inkscape:export-xdpi="100"
       inkscape:export-ydpi="100" />
  </g>
</svg>
